<?xml version="1.0" standalone="no"?>
<!DOCTYPE svg PUBLIC "-//W3C//DTD SVG 20010904//EN"
 "http://www.w3.org/TR/2001/REC-SVG-20010904/DTD/svg10.dtd">
<svg version="1.0" xmlns="http://www.w3.org/2000/svg"
 width="2160.000000pt" height="2160.000000pt" viewBox="0 0 2160.000000 2160.000000"
 preserveAspectRatio="xMidYMid meet">

<g transform="translate(0.000000,2160.000000) scale(0.100000,-0.100000)"
fill="#000000" stroke="none">
<path d="M5150 12166 l0 -2795 68 20 c757 219 2103 547 3020 735 l182 38 0
2398 0 2398 -1635 0 -1635 0 0 -2794z"/>
<path d="M10410 12750 c0 -2017 1 -2210 16 -2210 9 0 95 13 192 30 507 85
1388 216 2007 299 289 39 1018 131 1036 131 5 0 9 825 9 1980 l0 1980 -1630 0
-1630 0 0 -2210z"/>
<path d="M15515 11783 c-59 -8 -155 -45 -212 -82 -93 -60 -106 -91 -39 -91 85
0 235 -116 292 -224 l29 -55 -42 -43 c-23 -24 -55 -70 -70 -103 -28 -59 -28
-63 -27 -245 0 -253 16 -440 43 -511 28 -72 88 -156 140 -194 36 -27 40 -33
35 -60 -22 -107 -135 -244 -246 -300 l-69 -34 73 -35 c182 -87 340 -84 463 10
48 36 123 151 162 249 l32 80 129 6 c379 19 747 115 1109 289 154 74 225 129
282 219 122 192 54 464 -147 592 -53 34 -273 108 -425 143 -263 62 -462 81
-752 72 -121 -4 -238 -9 -260 -12 l-40 -5 -38 66 c-49 84 -152 194 -214 227
-40 22 -152 52 -172 47 -3 -1 -19 -4 -36 -6z"/>
<path d="M13485 9714 c-1155 -352 -2183 -678 -2855 -906 l-215 -73 0 -1480 0
-1480 1628 -3 1627 -2 0 2000 c0 1100 -1 2000 -2 1999 -2 0 -84 -25 -183 -55z"/>
<path d="M8245 7983 c-1009 -373 -1641 -619 -2257 -882 -246 -105 -654 -288
-770 -347 l-68 -34 0 -475 0 -475 1635 0 1635 0 0 1135 c0 902 -3 1135 -12
1134 -7 0 -80 -25 -163 -56z"/>
</g>
</svg>
